<svg width="24" height="24" viewBox="0 0 24 24" fill="none" xmlns="http://www.w3.org/2000/svg">
<path d="M8.81801 17.3033C7.75735 20.4853 3.51471 20.4853 3.51471 20.4853C3.51471 20.4853 3.51471 16.2427 6.69669 15.182" stroke="#1587ED" stroke-width="2" stroke-linecap="round" stroke-linejoin="round"/>
<path d="M18.364 9.87864L12 16.2426L7.75739 12L14.1213 5.636C16.5311 3.22623 18.9409 3.24974 19.9686 3.40307C20.1268 3.42666 20.2733 3.50045 20.3864 3.61358C20.4995 3.7267 20.5733 3.87318 20.5969 4.03141C20.7502 5.05911 20.7738 7.46887 18.364 9.87864Z" stroke="#1587ED" stroke-width="2" stroke-linecap="round" stroke-linejoin="round"/>
<path d="M17.3033 10.9393V16.9926C17.3033 17.0911 17.2839 17.1887 17.2462 17.2796C17.2085 17.3706 17.1533 17.4533 17.0836 17.523L14.0516 20.555C13.9556 20.651 13.8354 20.7191 13.7037 20.7521C13.572 20.7852 13.4338 20.7818 13.3039 20.7425C13.174 20.7032 13.0572 20.6293 12.9659 20.5288C12.8747 20.4283 12.8124 20.3049 12.7858 20.1718L12 16.2426" stroke="#1587ED" stroke-width="2" stroke-linecap="round" stroke-linejoin="round"/>
<path d="M13.0607 6.69666H7.00738C6.90889 6.69666 6.81136 6.71605 6.72037 6.75375C6.62938 6.79144 6.5467 6.84668 6.47705 6.91632L3.44501 9.94837C3.34902 10.0444 3.28088 10.1646 3.24787 10.2963C3.21485 10.4279 3.21818 10.5661 3.25752 10.696C3.29686 10.826 3.37072 10.9428 3.47124 11.034C3.57175 11.1253 3.69514 11.1875 3.82826 11.2141L7.75738 12" stroke="#1587ED" stroke-width="2" stroke-linecap="round" stroke-linejoin="round"/>
</svg>
